<?xml version="1.0" encoding="UTF-8" standalone="no"?>
<!DOCTYPE svg PUBLIC "-//W3C//DTD SVG 1.1//EN"
 "http://www.w3.org/Graphics/SVG/1.1/DTD/svg11.dtd">
<!-- Generated by graphviz version 2.38.0 (20140413.2041)
 -->
<!-- Title: %3 Pages: 1 -->
<svg width="422pt" height="337pt"
 viewBox="0.00 0.00 422.00 336.74" xmlns="http://www.w3.org/2000/svg" xmlns:xlink="http://www.w3.org/1999/xlink">
<g id="graph0" class="graph" transform="scale(1 1) rotate(0) translate(4 332.74)">
<title>%3</title>
<polygon fill="white" stroke="none" points="-4,4 -4,-332.74 418,-332.74 418,4 -4,4"/>
<text text-anchor="middle" x="207" y="-7.8" font-family="Times,serif" font-size="14.00">bar</text>
<!-- a.1 -->
<g id="node1" class="node"><title>a.1</title>
<g id="a_node1"><a xlink:href="a.1" xlink:title="a\n1">
<ellipse fill="none" stroke="black" stroke-width="2" cx="27" cy="-121.87" rx="27" ry="26.7407"/>
<text text-anchor="middle" x="27" y="-125.67" font-family="Times,serif" font-size="14.00">a</text>
<text text-anchor="middle" x="27" y="-110.67" font-family="Times,serif" font-size="14.00">1</text>
</a>
</g>
</g>
<!-- b.1 -->
<g id="node2" class="node"><title>b.1</title>
<g id="a_node2"><a xlink:href="b.1" xlink:title="b\n1">
<ellipse fill="none" stroke="black" stroke-width="2" cx="117" cy="-121.87" rx="27" ry="26.7407"/>
<text text-anchor="middle" x="117" y="-125.67" font-family="Times,serif" font-size="14.00">b</text>
<text text-anchor="middle" x="117" y="-110.67" font-family="Times,serif" font-size="14.00">1</text>
</a>
</g>
</g>
<!-- a.1&#45;&gt;b.1 -->
<g id="edge1" class="edge"><title>a.1&#45;&gt;b.1</title>
<path fill="none" stroke="black" stroke-width="2" d="M54.4029,-121.87C62.3932,-121.87 71.3106,-121.87 79.8241,-121.87"/>
<polygon fill="black" stroke="black" stroke-width="2" points="79.919,-125.37 89.919,-121.87 79.919,-118.37 79.919,-125.37"/>
</g>
<!-- b.2 -->
<g id="node3" class="node"><title>b.2</title>
<g id="a_node3"><a xlink:href="b.2" xlink:title="b\n2">
<ellipse fill="none" stroke="black" stroke-width="2" cx="207" cy="-193.87" rx="27" ry="26.7407"/>
<text text-anchor="middle" x="207" y="-197.67" font-family="Times,serif" font-size="14.00">b</text>
<text text-anchor="middle" x="207" y="-182.67" font-family="Times,serif" font-size="14.00">2</text>
</a>
</g>
</g>
<!-- b.1&#45;&gt;b.2 -->
<g id="edge2" class="edge"><title>b.1&#45;&gt;b.2</title>
<path fill="none" stroke="black" stroke-width="2" d="M138.41,-138.569C150.072,-148.111 164.873,-160.221 177.65,-170.675"/>
<polygon fill="black" stroke="black" stroke-width="2" points="175.745,-173.638 185.701,-177.261 180.177,-168.22 175.745,-173.638"/>
</g>
<!-- c.1 -->
<g id="node4" class="node"><title>c.1</title>
<g id="a_node4"><a xlink:href="c.1" xlink:title="c\n1">
<ellipse fill="none" stroke="black" stroke-width="2" cx="207" cy="-121.87" rx="27" ry="26.7407"/>
<text text-anchor="middle" x="207" y="-125.67" font-family="Times,serif" font-size="14.00">c</text>
<text text-anchor="middle" x="207" y="-110.67" font-family="Times,serif" font-size="14.00">1</text>
</a>
</g>
</g>
<!-- b.1&#45;&gt;c.1 -->
<g id="edge3" class="edge"><title>b.1&#45;&gt;c.1</title>
<path fill="none" stroke="black" stroke-width="2" d="M144.403,-121.87C152.393,-121.87 161.311,-121.87 169.824,-121.87"/>
<polygon fill="black" stroke="black" stroke-width="2" points="169.919,-125.37 179.919,-121.87 169.919,-118.37 169.919,-125.37"/>
</g>
<!-- d.1 -->
<g id="node5" class="node"><title>d.1</title>
<g id="a_node5"><a xlink:href="d.1" xlink:title="d\n1">
<ellipse fill="none" stroke="black" stroke-width="2" cx="207" cy="-49.8701" rx="27" ry="26.7407"/>
<text text-anchor="middle" x="207" y="-53.6701" font-family="Times,serif" font-size="14.00">d</text>
<text text-anchor="middle" x="207" y="-38.6701" font-family="Times,serif" font-size="14.00">1</text>
</a>
</g>
</g>
<!-- b.1&#45;&gt;d.1 -->
<g id="edge4" class="edge"><title>b.1&#45;&gt;d.1</title>
<path fill="none" stroke="black" stroke-width="2" d="M138.41,-105.171C150.072,-95.6291 164.873,-83.5192 177.65,-73.0655"/>
<polygon fill="black" stroke="black" stroke-width="2" points="180.177,-75.52 185.701,-66.4787 175.745,-70.1023 180.177,-75.52"/>
</g>
<!-- b.3 -->
<g id="node6" class="node"><title>b.3</title>
<g id="a_node6"><a xlink:href="b.3" xlink:title="b\n3">
<ellipse fill="none" stroke="black" stroke-width="2" cx="297" cy="-265.87" rx="27" ry="26.7407"/>
<text text-anchor="middle" x="297" y="-269.67" font-family="Times,serif" font-size="14.00">b</text>
<text text-anchor="middle" x="297" y="-254.67" font-family="Times,serif" font-size="14.00">3</text>
</a>
</g>
</g>
<!-- b.2&#45;&gt;b.3 -->
<g id="edge5" class="edge"><title>b.2&#45;&gt;b.3</title>
<path fill="none" stroke="black" stroke-width="2" d="M228.41,-210.569C240.072,-220.111 254.873,-232.221 267.65,-242.675"/>
<polygon fill="black" stroke="black" stroke-width="2" points="265.745,-245.638 275.701,-249.261 270.177,-240.22 265.745,-245.638"/>
</g>
<!-- c.2 -->
<g id="node7" class="node"><title>c.2</title>
<g id="a_node7"><a xlink:href="c.2" xlink:title="c\n2">
<ellipse fill="none" stroke="black" stroke-width="2" cx="297" cy="-193.87" rx="27" ry="26.7407"/>
<text text-anchor="middle" x="297" y="-197.67" font-family="Times,serif" font-size="14.00">c</text>
<text text-anchor="middle" x="297" y="-182.67" font-family="Times,serif" font-size="14.00">2</text>
</a>
</g>
</g>
<!-- b.2&#45;&gt;c.2 -->
<g id="edge6" class="edge"><title>b.2&#45;&gt;c.2</title>
<path fill="none" stroke="black" stroke-width="2" d="M234.403,-193.87C242.393,-193.87 251.311,-193.87 259.824,-193.87"/>
<polygon fill="black" stroke="black" stroke-width="2" points="259.919,-197.37 269.919,-193.87 259.919,-190.37 259.919,-197.37"/>
</g>
<!-- d.2 -->
<g id="node8" class="node"><title>d.2</title>
<g id="a_node8"><a xlink:href="d.2" xlink:title="d\n2">
<ellipse fill="none" stroke="black" stroke-width="2" cx="297" cy="-121.87" rx="27" ry="26.7407"/>
<text text-anchor="middle" x="297" y="-125.67" font-family="Times,serif" font-size="14.00">d</text>
<text text-anchor="middle" x="297" y="-110.67" font-family="Times,serif" font-size="14.00">2</text>
</a>
</g>
</g>
<!-- b.2&#45;&gt;d.2 -->
<g id="edge7" class="edge"><title>b.2&#45;&gt;d.2</title>
<path fill="none" stroke="black" stroke-width="2" d="M228.41,-177.171C240.072,-167.629 254.873,-155.519 267.65,-145.065"/>
<polygon fill="black" stroke="black" stroke-width="2" points="270.177,-147.52 275.701,-138.479 265.745,-142.102 270.177,-147.52"/>
</g>
<!-- c.3 -->
<g id="node9" class="node"><title>c.3</title>
<g id="a_node9"><a xlink:href="c.3" xlink:title="c\n3">
<ellipse fill="none" stroke="black" stroke-width="2" cx="387" cy="-301.87" rx="27" ry="26.7407"/>
<text text-anchor="middle" x="387" y="-305.67" font-family="Times,serif" font-size="14.00">c</text>
<text text-anchor="middle" x="387" y="-290.67" font-family="Times,serif" font-size="14.00">3</text>
</a>
</g>
</g>
<!-- b.3&#45;&gt;c.3 -->
<g id="edge8" class="edge"><title>b.3&#45;&gt;c.3</title>
<path fill="none" stroke="black" stroke-width="2" d="M322.513,-275.898C331.667,-279.643 342.231,-283.965 352.083,-287.995"/>
<polygon fill="black" stroke="black" stroke-width="2" points="351.038,-291.349 361.619,-291.896 353.688,-284.87 351.038,-291.349"/>
</g>
<!-- d.3 -->
<g id="node10" class="node"><title>d.3</title>
<g id="a_node10"><a xlink:href="d.3" xlink:title="d\n3">
<ellipse fill="none" stroke="black" stroke-width="2" cx="387" cy="-229.87" rx="27" ry="26.7407"/>
<text text-anchor="middle" x="387" y="-233.67" font-family="Times,serif" font-size="14.00">d</text>
<text text-anchor="middle" x="387" y="-218.67" font-family="Times,serif" font-size="14.00">3</text>
</a>
</g>
</g>
<!-- b.3&#45;&gt;d.3 -->
<g id="edge9" class="edge"><title>b.3&#45;&gt;d.3</title>
<path fill="none" stroke="black" stroke-width="2" d="M322.513,-255.842C331.667,-252.097 342.231,-247.775 352.083,-243.745"/>
<polygon fill="black" stroke="black" stroke-width="2" points="353.688,-246.87 361.619,-239.844 351.038,-240.391 353.688,-246.87"/>
</g>
</g>
</svg>
